<svg width="32" height="32" viewBox="0 0 32 32" fill="none" xmlns="http://www.w3.org/2000/svg">
<g clip-path="url(#clip0_20362_148955)">
<path d="M0 8C0 3.58172 3.58172 0 8 0H24C28.4183 0 32 3.58172 32 8V24C32 28.4183 28.4183 32 24 32H8C3.58172 32 0 28.4183 0 24V8Z" fill="#9257F3"/>
<path d="M22.6922 12.4328L18.3172 8.05781C18.2591 7.99979 18.1902 7.95378 18.1143 7.92241C18.0384 7.89105 17.9571 7.87494 17.875 7.875H10.375C10.0435 7.875 9.72554 8.0067 9.49112 8.24112C9.2567 8.47554 9.125 8.79348 9.125 9.125V22.875C9.125 23.2065 9.2567 23.5245 9.49112 23.7589C9.72554 23.9933 10.0435 24.125 10.375 24.125H21.625C21.9565 24.125 22.2745 23.9933 22.5089 23.7589C22.7433 23.5245 22.875 23.2065 22.875 22.875V12.875C22.8751 12.7929 22.859 12.7116 22.8276 12.6357C22.7962 12.5598 22.7502 12.4909 22.6922 12.4328ZM18.5 10.0086L20.7414 12.25H18.5V10.0086ZM21.625 22.875H14.75V21.625H15.375C15.5408 21.625 15.6997 21.5592 15.8169 21.4419C15.9342 21.3247 16 21.1658 16 21C16 20.8342 15.9342 20.6753 15.8169 20.5581C15.6997 20.4408 15.5408 20.375 15.375 20.375H14.75V19.125H15.375C15.5408 19.125 15.6997 19.0592 15.8169 18.9419C15.9342 18.8247 16 18.6658 16 18.5C16 18.3342 15.9342 18.1753 15.8169 18.0581C15.6997 17.9408 15.5408 17.875 15.375 17.875H14.75V16.625H15.375C15.5408 16.625 15.6997 16.5592 15.8169 16.4419C15.9342 16.3247 16 16.1658 16 16C16 15.8342 15.9342 15.6753 15.8169 15.5581C15.6997 15.4408 15.5408 15.375 15.375 15.375H14.75V14.75C14.75 14.5842 14.6842 14.4253 14.5669 14.3081C14.4497 14.1908 14.2908 14.125 14.125 14.125C13.9592 14.125 13.8003 14.1908 13.6831 14.3081C13.5658 14.4253 13.5 14.5842 13.5 14.75V15.375H12.875C12.7092 15.375 12.5503 15.4408 12.4331 15.5581C12.3158 15.6753 12.25 15.8342 12.25 16C12.25 16.1658 12.3158 16.3247 12.4331 16.4419C12.5503 16.5592 12.7092 16.625 12.875 16.625H13.5V17.875H12.875C12.7092 17.875 12.5503 17.9408 12.4331 18.0581C12.3158 18.1753 12.25 18.3342 12.25 18.5C12.25 18.6658 12.3158 18.8247 12.4331 18.9419C12.5503 19.0592 12.7092 19.125 12.875 19.125H13.5V20.375H12.875C12.7092 20.375 12.5503 20.4408 12.4331 20.5581C12.3158 20.6753 12.25 20.8342 12.25 21C12.25 21.1658 12.3158 21.3247 12.4331 21.4419C12.5503 21.5592 12.7092 21.625 12.875 21.625H13.5V22.875H10.375V9.125H17.25V12.875C17.25 13.0408 17.3158 13.1997 17.4331 13.3169C17.5503 13.4342 17.7092 13.5 17.875 13.5H21.625V22.875Z" fill="#F7F7F7"/>
</g>
<defs>
<clipPath id="clip0_20362_148955">
<path d="M0 8C0 3.58172 3.58172 0 8 0H24C28.4183 0 32 3.58172 32 8V24C32 28.4183 28.4183 32 24 32H8C3.58172 32 0 28.4183 0 24V8Z" fill="white"/>
</clipPath>
</defs>
</svg>
