<svg width="32" height="32" viewBox="0 0 32 32" fill="none" xmlns="http://www.w3.org/2000/svg">
<g clip-path="url(#clip0_20362_149469)">
<path d="M0 8C0 3.58172 3.58172 0 8 0H24C28.4183 0 32 3.58172 32 8V24C32 28.4183 28.4183 32 24 32H8C3.58172 32 0 28.4183 0 24V8Z" fill="#F64945"/>
<path d="M22.6922 12.4328L18.3172 8.05781C18.2591 7.99979 18.1902 7.95378 18.1143 7.92241C18.0384 7.89105 17.9571 7.87494 17.875 7.875H10.375C10.0435 7.875 9.72554 8.0067 9.49112 8.24112C9.2567 8.47554 9.125 8.79348 9.125 9.125V22.875C9.125 23.2065 9.2567 23.5245 9.49112 23.7589C9.72554 23.9933 10.0435 24.125 10.375 24.125H21.625C21.9565 24.125 22.2745 23.9933 22.5089 23.7589C22.7433 23.5245 22.875 23.2065 22.875 22.875V12.875C22.8751 12.7929 22.859 12.7116 22.8276 12.6357C22.7962 12.5598 22.7502 12.4909 22.6922 12.4328ZM18.5 10.0086L20.7414 12.25H18.5V10.0086ZM21.625 22.875H10.375V9.125H17.25V12.875C17.25 13.0408 17.3158 13.1997 17.4331 13.3169C17.5503 13.4342 17.7092 13.5 17.875 13.5H21.625V22.875Z" fill="#F7F7F7"/>
</g>
<defs>
<clipPath id="clip0_20362_149469">
<path d="M0 8C0 3.58172 3.58172 0 8 0H24C28.4183 0 32 3.58172 32 8V24C32 28.4183 28.4183 32 24 32H8C3.58172 32 0 28.4183 0 24V8Z" fill="white"/>
</clipPath>
</defs>
</svg>
