<svg width="32" height="32" viewBox="0 0 32 32" fill="none" xmlns="http://www.w3.org/2000/svg">
<g clip-path="url(#clip0_20362_237126)">
<path d="M0 8C0 3.58172 3.58172 0 8 0H24C28.4183 0 32 3.58172 32 8V24C32 28.4183 28.4183 32 24 32H8C3.58172 32 0 28.4183 0 24V8Z" fill="#1FB651"/>
<path d="M23.5 9.75H8.5C8.33424 9.75 8.17527 9.81585 8.05806 9.93306C7.94085 10.0503 7.875 10.2092 7.875 10.375V21C7.875 21.3315 8.0067 21.6495 8.24112 21.8839C8.47554 22.1183 8.79348 22.25 9.125 22.25H22.875C23.2065 22.25 23.5245 22.1183 23.7589 21.8839C23.9933 21.6495 24.125 21.3315 24.125 21V10.375C24.125 10.2092 24.0592 10.0503 23.9419 9.93306C23.8247 9.81585 23.6658 9.75 23.5 9.75ZM9.125 14.75H12.25V17.25H9.125V14.75ZM13.5 14.75H22.875V17.25H13.5V14.75ZM22.875 11V13.5H9.125V11H22.875ZM9.125 18.5H12.25V21H9.125V18.5ZM22.875 21H13.5V18.5H22.875V21Z" fill="#F7F7F7"/>
</g>
<defs>
<clipPath id="clip0_20362_237126">
<path d="M0 8C0 3.58172 3.58172 0 8 0H24C28.4183 0 32 3.58172 32 8V24C32 28.4183 28.4183 32 24 32H8C3.58172 32 0 28.4183 0 24V8Z" fill="white"/>
</clipPath>
</defs>
</svg>
